# Blender 4.4.3
# www.blender.org
o Cubo
v -1.000000 -1.000000 1.000000
v -1.000000 1.000000 1.000000
v -1.000000 -1.000000 -1.000000
v -1.000000 1.000000 -1.000000
v 1.000000 -1.000000 1.000000
v 1.000000 1.000000 1.000000
v 1.000000 -1.000000 -1.000000
v 1.000000 1.000000 -1.000000
v -1.000000 -1.000000 -0.666667
v -1.000000 -1.000000 -0.333333
v -1.000000 -1.000000 0.000000
v -1.000000 -1.000000 0.333333
v -1.000000 -1.000000 0.666667
v -1.000000 -0.666667 1.000000
v -1.000000 -0.333333 1.000000
v -1.000000 0.000000 1.000000
v -1.000000 0.333333 1.000000
v -1.000000 0.666667 1.000000
v -1.000000 1.000000 0.666667
v -1.000000 1.000000 0.333333
v -1.000000 1.000000 -0.000000
v -1.000000 1.000000 -0.333333
v -1.000000 1.000000 -0.666667
v -1.000000 0.666667 -1.000000
v -1.000000 0.333333 -1.000000
v -1.000000 -0.000000 -1.000000
v -1.000000 -0.333333 -1.000000
v -1.000000 -0.666667 -1.000000
v 0.666667 -1.000000 -1.000000
v 0.333333 -1.000000 -1.000000
v -0.000000 -1.000000 -1.000000
v -0.333333 -1.000000 -1.000000
v -0.666667 -1.000000 -1.000000
v -0.666667 1.000000 -1.000000
v -0.333333 1.000000 -1.000000
v 0.000000 1.000000 -1.000000
v 0.333333 1.000000 -1.000000
v 0.666667 1.000000 -1.000000
v 1.000000 0.666667 -1.000000
v 1.000000 0.333333 -1.000000
v 1.000000 -0.000000 -1.000000
v 1.000000 -0.333333 -1.000000
v 1.000000 -0.666667 -1.000000
v 1.000000 -1.000000 0.666667
v 1.000000 -1.000000 0.333333
v 1.000000 -1.000000 -0.000000
v 1.000000 -1.000000 -0.333333
v 1.000000 -1.000000 -0.666667
v 1.000000 1.000000 -0.666667
v 1.000000 1.000000 -0.333333
v 1.000000 1.000000 0.000000
v 1.000000 1.000000 0.333333
v 1.000000 1.000000 0.666667
v 1.000000 0.666667 1.000000
v 1.000000 0.333333 1.000000
v 1.000000 -0.000000 1.000000
v 1.000000 -0.333333 1.000000
v 1.000000 -0.666667 1.000000
v -0.666667 -1.000000 1.000000
v -0.333333 -1.000000 1.000000
v 0.000000 -1.000000 1.000000
v 0.333333 -1.000000 1.000000
v 0.666667 -1.000000 1.000000
v 0.666667 1.000000 1.000000
v 0.333333 1.000000 1.000000
v -0.000000 1.000000 1.000000
v -0.333333 1.000000 1.000000
v -0.666667 1.000000 1.000000
v 0.666667 1.000000 -0.666667
v 0.666667 1.000000 -0.333333
v 0.666667 1.000000 0.000000
v 0.666667 1.000000 0.333333
v 0.666667 1.000000 0.666667
v 0.333333 1.000000 -0.666667
v 0.333333 1.000000 -0.333333
v 0.333333 1.000000 0.000000
v 0.333333 1.000000 0.333333
v 0.333333 1.000000 0.666667
v 0.000000 1.000000 -0.666667
v 0.000000 1.000000 -0.333333
v -0.000000 1.000000 0.000000
v -0.000000 1.000000 0.333333
v -0.000000 1.000000 0.666667
v -0.333333 1.000000 -0.666667
v -0.333333 1.000000 -0.333333
v -0.333333 1.000000 0.000000
v -0.333333 1.000000 0.333333
v -0.333333 1.000000 0.666667
v -0.666667 1.000000 -0.666667
v -0.666667 1.000000 -0.333333
v -0.666667 1.000000 0.000000
v -0.666667 1.000000 0.333333
v -0.666667 1.000000 0.666667
v -0.666667 -1.000000 -0.666667
v -0.666667 -1.000000 -0.333333
v -0.666667 -1.000000 0.000000
v -0.666667 -1.000000 0.333333
v -0.666667 -1.000000 0.666667
v -0.333333 -1.000000 -0.666667
v -0.333333 -1.000000 -0.333333
v -0.333333 -1.000000 0.000000
v -0.333333 -1.000000 0.333333
v -0.333333 -1.000000 0.666667
v -0.000000 -1.000000 -0.666667
v -0.000000 -1.000000 -0.333333
v 0.000000 -1.000000 0.000000
v 0.000000 -1.000000 0.333333
v 0.000000 -1.000000 0.666667
v 0.333333 -1.000000 -0.666667
v 0.333333 -1.000000 -0.333333
v 0.333333 -1.000000 0.000000
v 0.333333 -1.000000 0.333333
v 0.333333 -1.000000 0.666667
v 0.666667 -1.000000 -0.666667
v 0.666667 -1.000000 -0.333333
v 0.666667 -1.000000 0.000000
v 0.666667 -1.000000 0.333333
v 0.666667 -1.000000 0.666667
v 0.666667 -0.666667 1.000000
v 0.333333 -0.666667 1.000000
v -0.000000 -0.666667 1.000000
v -0.333333 -0.666667 1.000000
v -0.666667 -0.666667 1.000000
v 0.666667 -0.333333 1.000000
v 0.333333 -0.333333 1.000000
v -0.000000 -0.333333 1.000000
v -0.333333 -0.333333 1.000000
v -0.666667 -0.333333 1.000000
v 0.666667 -0.000000 1.000000
v 0.333333 -0.000000 1.000000
v -0.000000 0.000000 1.000000
v -0.333333 0.000000 1.000000
v -0.666667 0.000000 1.000000
v 0.666667 0.333333 1.000000
v 0.333333 0.333333 1.000000
v -0.000000 0.333333 1.000000
v -0.333333 0.333333 1.000000
v -0.666667 0.333333 1.000000
v 0.666667 0.666667 1.000000
v 0.333333 0.666667 1.000000
v -0.000000 0.666667 1.000000
v -0.333333 0.666667 1.000000
v -0.666667 0.666667 1.000000
v 1.000000 -0.666667 -0.666667
v 1.000000 -0.666667 -0.333333
v 1.000000 -0.666667 0.000000
v 1.000000 -0.666667 0.333333
v 1.000000 -0.666667 0.666667
v 1.000000 -0.333333 -0.666667
v 1.000000 -0.333333 -0.333333
v 1.000000 -0.333333 0.000000
v 1.000000 -0.333333 0.333333
v 1.000000 -0.333333 0.666667
v 1.000000 -0.000000 -0.666667
v 1.000000 -0.000000 -0.333333
v 1.000000 -0.000000 0.000000
v 1.000000 -0.000000 0.333333
v 1.000000 -0.000000 0.666667
v 1.000000 0.333333 -0.666667
v 1.000000 0.333333 -0.333333
v 1.000000 0.333333 0.000000
v 1.000000 0.333333 0.333333
v 1.000000 0.333333 0.666667
v 1.000000 0.666667 -0.666667
v 1.000000 0.666667 -0.333333
v 1.000000 0.666667 0.000000
v 1.000000 0.666667 0.333333
v 1.000000 0.666667 0.666667
v -0.666667 -0.666667 -1.000000
v -0.333333 -0.666667 -1.000000
v 0.000000 -0.666667 -1.000000
v 0.333333 -0.666667 -1.000000
v 0.666667 -0.666667 -1.000000
v -0.666667 -0.333333 -1.000000
v -0.333333 -0.333333 -1.000000
v 0.000000 -0.333333 -1.000000
v 0.333333 -0.333333 -1.000000
v 0.666667 -0.333333 -1.000000
v -0.666667 -0.000000 -1.000000
v -0.333333 -0.000000 -1.000000
v 0.000000 -0.000000 -1.000000
v 0.333333 -0.000000 -1.000000
v 0.666667 -0.000000 -1.000000
v -0.666667 0.333333 -1.000000
v -0.333333 0.333333 -1.000000
v 0.000000 0.333333 -1.000000
v 0.333333 0.333333 -1.000000
v 0.666667 0.333333 -1.000000
v -0.666667 0.666667 -1.000000
v -0.333333 0.666667 -1.000000
v 0.000000 0.666667 -1.000000
v 0.333333 0.666667 -1.000000
v 0.666667 0.666667 -1.000000
v -1.000000 -0.666667 0.666667
v -1.000000 -0.666667 0.333333
v -1.000000 -0.666667 -0.000000
v -1.000000 -0.666667 -0.333333
v -1.000000 -0.666667 -0.666667
v -1.000000 -0.333333 0.666667
v -1.000000 -0.333333 0.333333
v -1.000000 -0.333333 -0.000000
v -1.000000 -0.333333 -0.333333
v -1.000000 -0.333333 -0.666667
v -1.000000 0.000000 0.666667
v -1.000000 0.000000 0.333333
v -1.000000 -0.000000 -0.000000
v -1.000000 -0.000000 -0.333333
v -1.000000 -0.000000 -0.666667
v -1.000000 0.333333 0.666667
v -1.000000 0.333333 0.333333
v -1.000000 0.333333 -0.000000
v -1.000000 0.333333 -0.333333
v -1.000000 0.333333 -0.666667
v -1.000000 0.666667 0.666667
v -1.000000 0.666667 0.333333
v -1.000000 0.666667 -0.000000
v -1.000000 0.666667 -0.333333
v -1.000000 0.666667 -0.666667
vn -1.0000 -0.0000 -0.0000
vn -0.0000 -0.0000 -1.0000
vn 1.0000 -0.0000 -0.0000
vn -0.0000 -0.0000 1.0000
vn -0.0000 -1.0000 -0.0000
vn -0.0000 1.0000 -0.0000
vt 0.055556 0.055556
vt 0.000000 0.055556
vt 0.000000 0.000000
vt 0.055556 0.000000
vt 0.055556 0.388889
vt 0.000000 0.388889
vt 0.000000 0.333333
vt 0.055556 0.333333
vt 0.388889 0.055556
vt 0.333333 0.055556
vt 0.333333 0.000000
vt 0.388889 0.000000
vt 0.388889 0.388889
vt 0.333333 0.388889
vt 0.333333 0.333333
vt 0.388889 0.333333
vt 0.055556 0.944444
vt 0.055556 1.000000
vt 0.000000 1.000000
vt 0.000000 0.944444
vt 0.388889 0.944444
vt 0.388889 1.000000
vt 0.333333 1.000000
vt 0.333333 0.944444
vt 0.388889 0.666667
vt 0.388889 0.722222
vt 0.333333 0.722222
vt 0.333333 0.666667
vt 0.388889 0.777778
vt 0.333333 0.777778
vt 0.388889 0.833333
vt 0.333333 0.833333
vt 0.388889 0.888889
vt 0.333333 0.888889
vt 0.666667 0.666667
vt 0.666667 0.722222
vt 0.611111 0.722222
vt 0.611111 0.666667
vt 0.555556 0.722222
vt 0.555556 0.666667
vt 0.500000 0.722222
vt 0.500000 0.666667
vt 0.444444 0.722222
vt 0.444444 0.666667
vt 0.666667 0.777778
vt 0.611111 0.777778
vt 0.555556 0.777778
vt 0.500000 0.777778
vt 0.444444 0.777778
vt 0.666667 0.833333
vt 0.611111 0.833333
vt 0.555556 0.833333
vt 0.500000 0.833333
vt 0.444444 0.833333
vt 0.666667 0.888889
vt 0.611111 0.888889
vt 0.555556 0.888889
vt 0.500000 0.888889
vt 0.444444 0.888889
vt 0.666667 0.944444
vt 0.611111 0.944444
vt 0.555556 0.944444
vt 0.500000 0.944444
vt 0.444444 0.944444
vt 0.666667 1.000000
vt 0.611111 1.000000
vt 0.555556 1.000000
vt 0.500000 1.000000
vt 0.444444 1.000000
vt 0.055556 0.666667
vt 0.055556 0.722222
vt 0.000000 0.722222
vt 0.000000 0.666667
vt 0.055556 0.777778
vt 0.000000 0.777778
vt 0.055556 0.833333
vt 0.000000 0.833333
vt 0.055556 0.888889
vt 0.000000 0.888889
vt 0.333333 0.666667
vt 0.333333 0.722222
vt 0.277778 0.722222
vt 0.277778 0.666667
vt 0.222222 0.722222
vt 0.222222 0.666667
vt 0.166667 0.722222
vt 0.166667 0.666667
vt 0.111111 0.722222
vt 0.111111 0.666667
vt 0.333333 0.777778
vt 0.277778 0.777778
vt 0.222222 0.777778
vt 0.166667 0.777778
vt 0.111111 0.777778
vt 0.333333 0.833333
vt 0.277778 0.833333
vt 0.222222 0.833333
vt 0.166667 0.833333
vt 0.111111 0.833333
vt 0.333333 0.888889
vt 0.277778 0.888889
vt 0.222222 0.888889
vt 0.166667 0.888889
vt 0.111111 0.888889
vt 0.333333 0.944444
vt 0.277778 0.944444
vt 0.222222 0.944444
vt 0.166667 0.944444
vt 0.111111 0.944444
vt 0.333333 1.000000
vt 0.277778 1.000000
vt 0.222222 1.000000
vt 0.166667 1.000000
vt 0.111111 1.000000
vt 0.666667 0.388889
vt 0.611111 0.388889
vt 0.611111 0.333333
vt 0.666667 0.333333
vt 0.555556 0.388889
vt 0.555556 0.333333
vt 0.500000 0.388889
vt 0.500000 0.333333
vt 0.444444 0.388889
vt 0.444444 0.333333
vt 0.666667 0.666667
vt 0.611111 0.666667
vt 0.611111 0.611111
vt 0.666667 0.611111
vt 0.611111 0.555556
vt 0.666667 0.555556
vt 0.611111 0.500000
vt 0.666667 0.500000
vt 0.611111 0.444444
vt 0.666667 0.444444
vt 0.555556 0.666667
vt 0.555556 0.611111
vt 0.555556 0.555556
vt 0.555556 0.500000
vt 0.555556 0.444444
vt 0.500000 0.666667
vt 0.500000 0.611111
vt 0.500000 0.555556
vt 0.500000 0.500000
vt 0.500000 0.444444
vt 0.444444 0.666667
vt 0.444444 0.611111
vt 0.444444 0.555556
vt 0.444444 0.500000
vt 0.444444 0.444444
vt 0.388889 0.666667
vt 0.388889 0.611111
vt 0.388889 0.555556
vt 0.388889 0.500000
vt 0.388889 0.444444
vt 0.333333 0.666667
vt 0.333333 0.611111
vt 0.333333 0.555556
vt 0.333333 0.500000
vt 0.333333 0.444444
vt 0.666667 0.055556
vt 0.611111 0.055556
vt 0.611111 0.000000
vt 0.666667 0.000000
vt 0.555556 0.055556
vt 0.555556 0.000000
vt 0.500000 0.055556
vt 0.500000 0.000000
vt 0.444444 0.055556
vt 0.444444 0.000000
vt 0.666667 0.333333
vt 0.611111 0.333333
vt 0.611111 0.277778
vt 0.666667 0.277778
vt 0.611111 0.222222
vt 0.666667 0.222222
vt 0.611111 0.166667
vt 0.666667 0.166667
vt 0.611111 0.111111
vt 0.666667 0.111111
vt 0.555556 0.333333
vt 0.555556 0.277778
vt 0.555556 0.222222
vt 0.555556 0.166667
vt 0.555556 0.111111
vt 0.500000 0.333333
vt 0.500000 0.277778
vt 0.500000 0.222222
vt 0.500000 0.166667
vt 0.500000 0.111111
vt 0.444444 0.333333
vt 0.444444 0.277778
vt 0.444444 0.222222
vt 0.444444 0.166667
vt 0.444444 0.111111
vt 0.388889 0.333333
vt 0.388889 0.277778
vt 0.388889 0.222222
vt 0.388889 0.166667
vt 0.388889 0.111111
vt 0.333333 0.333333
vt 0.333333 0.277778
vt 0.333333 0.222222
vt 0.333333 0.166667
vt 0.333333 0.111111
vt 0.333333 0.388889
vt 0.277778 0.388889
vt 0.277778 0.333333
vt 0.333333 0.333333
vt 0.222222 0.388889
vt 0.222222 0.333333
vt 0.166667 0.388889
vt 0.166667 0.333333
vt 0.111111 0.388889
vt 0.111111 0.333333
vt 0.333333 0.666667
vt 0.277778 0.611111
vt 0.333333 0.611111
vt 0.277778 0.555556
vt 0.333333 0.555556
vt 0.277778 0.500000
vt 0.333333 0.500000
vt 0.277778 0.444444
vt 0.333333 0.444444
vt 0.222222 0.611111
vt 0.222222 0.555556
vt 0.222222 0.500000
vt 0.222222 0.444444
vt 0.166667 0.666667
vt 0.166667 0.611111
vt 0.166667 0.555556
vt 0.166667 0.500000
vt 0.166667 0.444444
vt 0.111111 0.666667
vt 0.111111 0.611111
vt 0.111111 0.555556
vt 0.111111 0.500000
vt 0.111111 0.444444
vt 0.055556 0.666667
vt 0.055556 0.611111
vt 0.055556 0.555556
vt 0.055556 0.500000
vt 0.055556 0.444444
vt 0.000000 0.666667
vt 0.000000 0.611111
vt 0.000000 0.555556
vt 0.000000 0.500000
vt 0.000000 0.444444
vt 0.333333 0.055556
vt 0.277778 0.055556
vt 0.277778 0.000000
vt 0.333333 0.000000
vt 0.222222 0.055556
vt 0.222222 0.000000
vt 0.166667 0.055556
vt 0.166667 0.000000
vt 0.111111 0.055556
vt 0.111111 0.000000
vt 0.333333 0.333333
vt 0.277778 0.333333
vt 0.277778 0.277778
vt 0.333333 0.277778
vt 0.277778 0.222222
vt 0.333333 0.222222
vt 0.277778 0.166667
vt 0.333333 0.166667
vt 0.277778 0.111111
vt 0.333333 0.111111
vt 0.222222 0.333333
vt 0.222222 0.277778
vt 0.222222 0.222222
vt 0.222222 0.166667
vt 0.222222 0.111111
vt 0.166667 0.333333
vt 0.166667 0.277778
vt 0.166667 0.222222
vt 0.166667 0.166667
vt 0.166667 0.111111
vt 0.111111 0.333333
vt 0.111111 0.277778
vt 0.111111 0.222222
vt 0.111111 0.166667
vt 0.111111 0.111111
vt 0.055556 0.333333
vt 0.055556 0.277778
vt 0.055556 0.222222
vt 0.055556 0.166667
vt 0.055556 0.111111
vt 0.000000 0.333333
vt 0.000000 0.277778
vt 0.000000 0.222222
vt 0.000000 0.166667
vt 0.000000 0.111111
s 0
f 218/1/1 23/2/1 4/3/1 24/4/1
f 193/5/2 38/6/2 8/7/2 39/8/2
f 168/9/3 53/10/3 6/11/3 54/12/3
f 143/13/4 68/14/4 2/15/4 18/16/4
f 118/17/5 44/18/5 5/19/5 63/20/5
f 93/21/6 19/22/6 2/23/6 68/24/6
f 53/25/6 73/26/6 64/27/6 6/28/6
f 73/26/6 78/29/6 65/30/6 64/27/6
f 78/29/6 83/31/6 66/32/6 65/30/6
f 83/31/6 88/33/6 67/34/6 66/32/6
f 88/33/6 93/21/6 68/24/6 67/34/6
f 8/35/6 38/36/6 69/37/6 49/38/6
f 49/38/6 69/37/6 70/39/6 50/40/6
f 50/40/6 70/39/6 71/41/6 51/42/6
f 51/42/6 71/41/6 72/43/6 52/44/6
f 52/44/6 72/43/6 73/26/6 53/25/6
f 38/36/6 37/45/6 74/46/6 69/37/6
f 69/37/6 74/46/6 75/47/6 70/39/6
f 70/39/6 75/47/6 76/48/6 71/41/6
f 71/41/6 76/48/6 77/49/6 72/43/6
f 72/43/6 77/49/6 78/29/6 73/26/6
f 37/45/6 36/50/6 79/51/6 74/46/6
f 74/46/6 79/51/6 80/52/6 75/47/6
f 75/47/6 80/52/6 81/53/6 76/48/6
f 76/48/6 81/53/6 82/54/6 77/49/6
f 77/49/6 82/54/6 83/31/6 78/29/6
f 36/50/6 35/55/6 84/56/6 79/51/6
f 79/51/6 84/56/6 85/57/6 80/52/6
f 80/52/6 85/57/6 86/58/6 81/53/6
f 81/53/6 86/58/6 87/59/6 82/54/6
f 82/54/6 87/59/6 88/33/6 83/31/6
f 35/55/6 34/60/6 89/61/6 84/56/6
f 84/56/6 89/61/6 90/62/6 85/57/6
f 85/57/6 90/62/6 91/63/6 86/58/6
f 86/58/6 91/63/6 92/64/6 87/59/6
f 87/59/6 92/64/6 93/21/6 88/33/6
f 34/60/6 4/65/6 23/66/6 89/61/6
f 89/61/6 23/66/6 22/67/6 90/62/6
f 90/62/6 22/67/6 21/68/6 91/63/6
f 91/63/6 21/68/6 20/69/6 92/64/6
f 92/64/6 20/69/6 19/22/6 93/21/6
f 13/70/5 98/71/5 59/72/5 1/73/5
f 98/71/5 103/74/5 60/75/5 59/72/5
f 103/74/5 108/76/5 61/77/5 60/75/5
f 108/76/5 113/78/5 62/79/5 61/77/5
f 113/78/5 118/17/5 63/20/5 62/79/5
f 3/80/5 33/81/5 94/82/5 9/83/5
f 9/83/5 94/82/5 95/84/5 10/85/5
f 10/85/5 95/84/5 96/86/5 11/87/5
f 11/87/5 96/86/5 97/88/5 12/89/5
f 12/89/5 97/88/5 98/71/5 13/70/5
f 33/81/5 32/90/5 99/91/5 94/82/5
f 94/82/5 99/91/5 100/92/5 95/84/5
f 95/84/5 100/92/5 101/93/5 96/86/5
f 96/86/5 101/93/5 102/94/5 97/88/5
f 97/88/5 102/94/5 103/74/5 98/71/5
f 32/90/5 31/95/5 104/96/5 99/91/5
f 99/91/5 104/96/5 105/97/5 100/92/5
f 100/92/5 105/97/5 106/98/5 101/93/5
f 101/93/5 106/98/5 107/99/5 102/94/5
f 102/94/5 107/99/5 108/76/5 103/74/5
f 31/95/5 30/100/5 109/101/5 104/96/5
f 104/96/5 109/101/5 110/102/5 105/97/5
f 105/97/5 110/102/5 111/103/5 106/98/5
f 106/98/5 111/103/5 112/104/5 107/99/5
f 107/99/5 112/104/5 113/78/5 108/76/5
f 30/100/5 29/105/5 114/106/5 109/101/5
f 109/101/5 114/106/5 115/107/5 110/102/5
f 110/102/5 115/107/5 116/108/5 111/103/5
f 111/103/5 116/108/5 117/109/5 112/104/5
f 112/104/5 117/109/5 118/17/5 113/78/5
f 29/105/5 7/110/5 48/111/5 114/106/5
f 114/106/5 48/111/5 47/112/5 115/107/5
f 115/107/5 47/112/5 46/113/5 116/108/5
f 116/108/5 46/113/5 45/114/5 117/109/5
f 117/109/5 45/114/5 44/18/5 118/17/5
f 59/115/4 123/116/4 14/117/4 1/118/4
f 123/116/4 128/119/4 15/120/4 14/117/4
f 128/119/4 133/121/4 16/122/4 15/120/4
f 133/121/4 138/123/4 17/124/4 16/122/4
f 138/123/4 143/13/4 18/16/4 17/124/4
f 5/125/4 58/126/4 119/127/4 63/128/4
f 63/128/4 119/127/4 120/129/4 62/130/4
f 62/130/4 120/129/4 121/131/4 61/132/4
f 61/132/4 121/131/4 122/133/4 60/134/4
f 60/134/4 122/133/4 123/116/4 59/115/4
f 58/126/4 57/135/4 124/136/4 119/127/4
f 119/127/4 124/136/4 125/137/4 120/129/4
f 120/129/4 125/137/4 126/138/4 121/131/4
f 121/131/4 126/138/4 127/139/4 122/133/4
f 122/133/4 127/139/4 128/119/4 123/116/4
f 57/135/4 56/140/4 129/141/4 124/136/4
f 124/136/4 129/141/4 130/142/4 125/137/4
f 125/137/4 130/142/4 131/143/4 126/138/4
f 126/138/4 131/143/4 132/144/4 127/139/4
f 127/139/4 132/144/4 133/121/4 128/119/4
f 56/140/4 55/145/4 134/146/4 129/141/4
f 129/141/4 134/146/4 135/147/4 130/142/4
f 130/142/4 135/147/4 136/148/4 131/143/4
f 131/143/4 136/148/4 137/149/4 132/144/4
f 132/144/4 137/149/4 138/123/4 133/121/4
f 55/145/4 54/150/4 139/151/4 134/146/4
f 134/146/4 139/151/4 140/152/4 135/147/4
f 135/147/4 140/152/4 141/153/4 136/148/4
f 136/148/4 141/153/4 142/154/4 137/149/4
f 137/149/4 142/154/4 143/13/4 138/123/4
f 54/150/4 6/155/4 64/156/4 139/151/4
f 139/151/4 64/156/4 65/157/4 140/152/4
f 140/152/4 65/157/4 66/158/4 141/153/4
f 141/153/4 66/158/4 67/159/4 142/154/4
f 142/154/4 67/159/4 68/14/4 143/13/4
f 44/160/3 148/161/3 58/162/3 5/163/3
f 148/161/3 153/164/3 57/165/3 58/162/3
f 153/164/3 158/166/3 56/167/3 57/165/3
f 158/166/3 163/168/3 55/169/3 56/167/3
f 163/168/3 168/9/3 54/12/3 55/169/3
f 7/170/3 43/171/3 144/172/3 48/173/3
f 48/173/3 144/172/3 145/174/3 47/175/3
f 47/175/3 145/174/3 146/176/3 46/177/3
f 46/177/3 146/176/3 147/178/3 45/179/3
f 45/179/3 147/178/3 148/161/3 44/160/3
f 43/171/3 42/180/3 149/181/3 144/172/3
f 144/172/3 149/181/3 150/182/3 145/174/3
f 145/174/3 150/182/3 151/183/3 146/176/3
f 146/176/3 151/183/3 152/184/3 147/178/3
f 147/178/3 152/184/3 153/164/3 148/161/3
f 42/180/3 41/185/3 154/186/3 149/181/3
f 149/181/3 154/186/3 155/187/3 150/182/3
f 150/182/3 155/187/3 156/188/3 151/183/3
f 151/183/3 156/188/3 157/189/3 152/184/3
f 152/184/3 157/189/3 158/166/3 153/164/3
f 41/185/3 40/190/3 159/191/3 154/186/3
f 154/186/3 159/191/3 160/192/3 155/187/3
f 155/187/3 160/192/3 161/193/3 156/188/3
f 156/188/3 161/193/3 162/194/3 157/189/3
f 157/189/3 162/194/3 163/168/3 158/166/3
f 40/190/3 39/195/3 164/196/3 159/191/3
f 159/191/3 164/196/3 165/197/3 160/192/3
f 160/192/3 165/197/3 166/198/3 161/193/3
f 161/193/3 166/198/3 167/199/3 162/194/3
f 162/194/3 167/199/3 168/9/3 163/168/3
f 39/195/3 8/200/3 49/201/3 164/196/3
f 164/196/3 49/201/3 50/202/3 165/197/3
f 165/197/3 50/202/3 51/203/3 166/198/3
f 166/198/3 51/203/3 52/204/3 167/199/3
f 167/199/3 52/204/3 53/10/3 168/9/3
f 29/205/2 173/206/2 43/207/2 7/208/2
f 173/206/2 178/209/2 42/210/2 43/207/2
f 178/209/2 183/211/2 41/212/2 42/210/2
f 183/211/2 188/213/2 40/214/2 41/212/2
f 188/213/2 193/5/2 39/8/2 40/214/2
f 3/215/2 28/83/2 169/216/2 33/217/2
f 33/217/2 169/216/2 170/218/2 32/219/2
f 32/219/2 170/218/2 171/220/2 31/221/2
f 31/221/2 171/220/2 172/222/2 30/223/2
f 30/223/2 172/222/2 173/206/2 29/205/2
f 28/83/2 27/85/2 174/224/2 169/216/2
f 169/216/2 174/224/2 175/225/2 170/218/2
f 170/218/2 175/225/2 176/226/2 171/220/2
f 171/220/2 176/226/2 177/227/2 172/222/2
f 172/222/2 177/227/2 178/209/2 173/206/2
f 27/85/2 26/228/2 179/229/2 174/224/2
f 174/224/2 179/229/2 180/230/2 175/225/2
f 175/225/2 180/230/2 181/231/2 176/226/2
f 176/226/2 181/231/2 182/232/2 177/227/2
f 177/227/2 182/232/2 183/211/2 178/209/2
f 26/228/2 25/233/2 184/234/2 179/229/2
f 179/229/2 184/234/2 185/235/2 180/230/2
f 180/230/2 185/235/2 186/236/2 181/231/2
f 181/231/2 186/236/2 187/237/2 182/232/2
f 182/232/2 187/237/2 188/213/2 183/211/2
f 25/233/2 24/238/2 189/239/2 184/234/2
f 184/234/2 189/239/2 190/240/2 185/235/2
f 185/235/2 190/240/2 191/241/2 186/236/2
f 186/236/2 191/241/2 192/242/2 187/237/2
f 187/237/2 192/242/2 193/5/2 188/213/2
f 24/238/2 4/243/2 34/244/2 189/239/2
f 189/239/2 34/244/2 35/245/2 190/240/2
f 190/240/2 35/245/2 36/246/2 191/241/2
f 191/241/2 36/246/2 37/247/2 192/242/2
f 192/242/2 37/247/2 38/6/2 193/5/2
f 9/248/1 198/249/1 28/250/1 3/251/1
f 198/249/1 203/252/1 27/253/1 28/250/1
f 203/252/1 208/254/1 26/255/1 27/253/1
f 208/254/1 213/256/1 25/257/1 26/255/1
f 213/256/1 218/1/1 24/4/1 25/257/1
f 1/258/1 14/259/1 194/260/1 13/261/1
f 13/261/1 194/260/1 195/262/1 12/263/1
f 12/263/1 195/262/1 196/264/1 11/265/1
f 11/265/1 196/264/1 197/266/1 10/267/1
f 10/267/1 197/266/1 198/249/1 9/248/1
f 14/259/1 15/268/1 199/269/1 194/260/1
f 194/260/1 199/269/1 200/270/1 195/262/1
f 195/262/1 200/270/1 201/271/1 196/264/1
f 196/264/1 201/271/1 202/272/1 197/266/1
f 197/266/1 202/272/1 203/252/1 198/249/1
f 15/268/1 16/273/1 204/274/1 199/269/1
f 199/269/1 204/274/1 205/275/1 200/270/1
f 200/270/1 205/275/1 206/276/1 201/271/1
f 201/271/1 206/276/1 207/277/1 202/272/1
f 202/272/1 207/277/1 208/254/1 203/252/1
f 16/273/1 17/278/1 209/279/1 204/274/1
f 204/274/1 209/279/1 210/280/1 205/275/1
f 205/275/1 210/280/1 211/281/1 206/276/1
f 206/276/1 211/281/1 212/282/1 207/277/1
f 207/277/1 212/282/1 213/256/1 208/254/1
f 17/278/1 18/283/1 214/284/1 209/279/1
f 209/279/1 214/284/1 215/285/1 210/280/1
f 210/280/1 215/285/1 216/286/1 211/281/1
f 211/281/1 216/286/1 217/287/1 212/282/1
f 212/282/1 217/287/1 218/1/1 213/256/1
f 18/283/1 2/288/1 19/289/1 214/284/1
f 214/284/1 19/289/1 20/290/1 215/285/1
f 215/285/1 20/290/1 21/291/1 216/286/1
f 216/286/1 21/291/1 22/292/1 217/287/1
f 217/287/1 22/292/1 23/2/1 218/1/1
